# xmcd
#
# Track frame offsets: 
#        150
#        51284
#        70386
#        108629
#        121927
#        152351
#        176740
#        231298
#        294810
#        320613
#
# Disc length: 4580 seconds
#
# Revision: 0
# Processed by: cddbd v1.5.2PL0 Copyright (c) Steve Scherf et al.
# Submitted via: ExactAudioCopy v1.0b1
#
DISCID=8a11e20a
DTITLE=Rüdiger Oppermann - The Winding Road CD2
DYEAR=2012
DGENRE=Country
TTITLE0=Cataract extended
TTITLE1=Eliz Isa
TTITLE2=Oh, Kembe!
TTITLE3=New Shady Grove
TTITLE4=Le Jongleur du son
TTITLE5=Bamsoom' Oh
TTITLE6=Mekong Journey Diary
TTITLE7=Reflexions - Air Dance
TTITLE8=Verwicklung - Befrieung
TTITLE9=Beautiful Turns - Grand Finale
EXTD=
EXTT0=
EXTT1=
EXTT2=
EXTT3=
EXTT4=
EXTT5=
EXTT6=
EXTT7=
EXTT8=
EXTT9=
PLAYORDER=
